<?xml version="1.0" encoding="iso-8859-1"?>
<!-- Uploaded to: SVG Repo, www.svgrepo.com, Generator: SVG Repo Mixer Tools -->
<svg height="800px" width="800px" version="1.1" id="Layer_1" xmlns="http://www.w3.org/2000/svg" xmlns:xlink="http://www.w3.org/1999/xlink" 
	 viewBox="0 0 512 512" xml:space="preserve">
<path style="fill:#6D2C93;" d="M456.348,0H89.043C61.381,0,38.957,22.424,38.957,50.087v411.826
	c0,27.662,22.424,50.087,50.087,50.087h367.304c9.22,0,16.696-7.475,16.696-16.696V16.696C473.043,7.475,465.568,0,456.348,0z"/>
<path style="fill:#933EC5;" d="M473.043,411.826V13.429C473.043,6.013,465.568,0,456.348,0H89.043v411.826H473.043z"/>
<path style="fill:#FFDA44;" d="M189.217,166.957h50.087V116.87c0-9.22,7.475-16.696,16.696-16.696s16.696,7.475,16.696,16.696
	v50.087h50.087c9.22,0,16.696,7.475,16.696,16.696c0,9.22-7.475,16.696-16.696,16.696h-50.087v116.87
	c0,9.22-7.475,16.696-16.696,16.696s-16.696-7.475-16.696-16.696v-116.87h-50.087c-9.22,0-16.696-7.475-16.696-16.696
	C172.522,174.432,179.997,166.957,189.217,166.957z"/>
<path style="fill:#FFFFFF;" d="M439.652,478.609H89.043c-9.22,0-16.696-7.475-16.696-16.696c0-9.206,7.489-16.696,16.696-16.696
	c175.268,0,177.215,0,350.609,0V478.609z"/>
</svg>